#Comment line ignore any data following # character 
#Hierarchical Translation and Rotation (.htr) file 
[Header]	
#Header keywords are followed by a single value 
FileType HTR		#Single word string
DataType HTRS		#Translation followed by rotation and scale data
FileVersion 1		#integer
NumSegments 84		#integer
NumFrames 2		#integer
DataFrameRate 30		#integer, data frame rate in this file
EulerRotationOrder ZYX
CalibrationUnits mm
RotationUnits Degrees
GlobalAxisofGravity Y
BoneLengthAxis Y
ScaleFactor 1.00
[SegmentNames&Hierarchy]
#CHILD	PARENT
MASTER GLOBAL
root MASTER
chest root
L_mid_tent01 root
R_mid_tent01 root
spine01 root
Bip01_Neck chest
L_humerus chest
R_humerus chest
weapon_bone chest
Bip01_Head Bip01_Neck
eye_left_bone Bip01_Head
eye_right_bone Bip01_Head
L_forearm L_humerus
L_front_hand L_forearm
L_weapon_bone L_forearm
L_front_hand01_01 L_front_hand
L_front_hand02_01 L_front_hand
L_front_hand03_01 L_front_hand
L_front_hand01_02 L_front_hand01_01
L_front_hand02_02 L_front_hand02_01
L_front_hand03_02 L_front_hand03_01
R_forearm R_humerus
R_front_hand R_forearm
R_weapon_bone R_forearm
R_front_hand01_01 R_front_hand
R_front_hand02_01 R_front_hand
R_front_hand03_01 R_front_hand
R_front_hand01_02 R_front_hand01_01
R_front_hand02_02 R_front_hand02_01
R_front_hand03_02 R_front_hand03_01
null_rope01_connect L_mid_tent01
Rope1_Seg01 null_rope01_connect
Rope1_Seg02 Rope1_Seg01
Rope1_Seg03 Rope1_Seg02
Rope1_Seg04 Rope1_Seg03
Rope1_Seg05 Rope1_Seg04
Rope1_Seg06 Rope1_Seg05
Rope1_Seg07 Rope1_Seg06
Rope1_Seg09 Rope1_Seg07
L_mid_hand01 Rope1_Seg09
L_mid_hand02 Rope1_Seg09
L_mid_hand03 Rope1_Seg09
null_rope02_connect R_mid_tent01
Rope2_Seg01 null_rope02_connect
Rope2_Seg02 Rope2_Seg01
Rope2_Seg03 Rope2_Seg02
Rope2_Seg04 Rope2_Seg03
Rope2_Seg05 Rope2_Seg04
Rope2_Seg06 Rope2_Seg05
Rope2_Seg07 Rope2_Seg06
Rope2_Seg09 Rope2_Seg07
R_mid_hand01 Rope2_Seg09
R_mid_hand02 Rope2_Seg09
R_mid_hand03 Rope2_Seg09
spine02 spine01
spine03 spine02
pelvis spine03
null_rope03_connect pelvis
null_rope04_connect pelvis
Rope3_Seg01 null_rope03_connect
Rope3_Seg02 Rope3_Seg01
Rope3_Seg03 Rope3_Seg02
Rope3_Seg04 Rope3_Seg03
Rope3_Seg05 Rope3_Seg04
Rope3_Seg06 Rope3_Seg05
Rope3_Seg07 Rope3_Seg06
Rope3_Seg08 Rope3_Seg07
Rope3_Seg09 Rope3_Seg08
R_rear_hand01 Rope3_Seg09
R_rear_hand02 Rope3_Seg09
R_rear_hand03 Rope3_Seg09
Rope4_Seg01 null_rope04_connect
Rope4_Seg02 Rope4_Seg01
Rope4_Seg03 Rope4_Seg02
Rope4_Seg04 Rope4_Seg03
Rope4_Seg05 Rope4_Seg04
Rope4_Seg06 Rope4_Seg05
Rope4_Seg07 Rope4_Seg06
Rope4_Seg08 Rope4_Seg07
Rope4_Seg09 Rope4_Seg08
L_rear_hand01 Rope4_Seg09
L_rear_hand02 Rope4_Seg09
L_rear_hand03 Rope4_Seg09
[BasePosition]
#SegmentName Tx, Ty, Tz, Rx, Ry, Rz, BoneLength
MASTER 0.000000 0.000000 0.000000 -90.000000 0.000000 0.000000 10.000000 
root 0.000000 0.000000 0.000000 0.000000 0.000000 0.000000 10.000000 
chest 0.000000 0.000000 0.000000 0.000000 0.000000 0.000000 10.000000 
L_mid_tent01 0.000000 0.000000 0.000000 0.000000 0.000000 0.000000 10.000000 
R_mid_tent01 0.000000 0.000000 0.000000 0.000000 0.000000 0.000000 10.000000 
spine01 0.000000 0.000000 0.000000 0.000000 0.000000 0.000000 10.000000 
Bip01_Neck 0.000000 0.000000 0.000000 0.000000 0.000000 0.000000 10.000000 
L_humerus 0.000000 0.000000 0.000000 0.000000 0.000000 0.000000 10.000000 
R_humerus 0.000000 0.000000 0.000000 0.000000 0.000000 0.000000 10.000000 
weapon_bone 0.000000 0.000000 0.000000 0.000000 0.000000 0.000000 10.000000 
Bip01_Head 0.000000 0.000000 0.000000 0.000000 0.000000 0.000000 10.000000 
eye_left_bone 0.000000 0.000000 0.000000 0.000000 0.000000 0.000000 10.000000 
eye_right_bone 0.000000 0.000000 0.000000 0.000000 0.000000 0.000000 10.000000 
L_forearm 0.000000 0.000000 0.000000 0.000000 0.000000 0.000000 10.000000 
L_front_hand 0.000000 0.000000 0.000000 0.000000 0.000000 0.000000 10.000000 
L_weapon_bone 0.000000 0.000000 0.000000 0.000000 0.000000 0.000000 10.000000 
L_front_hand01_01 0.000000 0.000000 0.000000 0.000000 0.000000 0.000000 10.000000 
L_front_hand02_01 0.000000 0.000000 0.000000 0.000000 0.000000 0.000000 10.000000 
L_front_hand03_01 0.000000 0.000000 0.000000 0.000000 0.000000 0.000000 10.000000 
L_front_hand01_02 0.000000 0.000000 0.000000 0.000000 0.000000 0.000000 10.000000 
L_front_hand02_02 0.000000 0.000000 0.000000 0.000000 0.000000 0.000000 10.000000 
L_front_hand03_02 0.000000 0.000000 0.000000 0.000000 0.000000 0.000000 10.000000 
R_forearm 0.000000 0.000000 0.000000 0.000000 0.000000 0.000000 10.000000 
R_front_hand 0.000000 0.000000 0.000000 0.000000 0.000000 0.000000 10.000000 
R_weapon_bone 0.000000 0.000000 0.000000 0.000000 0.000000 0.000000 10.000000 
R_front_hand01_01 0.000000 0.000000 0.000000 0.000000 0.000000 0.000000 10.000000 
R_front_hand02_01 0.000000 0.000000 0.000000 0.000000 0.000000 0.000000 10.000000 
R_front_hand03_01 0.000000 0.000000 0.000000 0.000000 0.000000 0.000000 10.000000 
R_front_hand01_02 0.000000 0.000000 0.000000 0.000000 0.000000 0.000000 10.000000 
R_front_hand02_02 0.000000 0.000000 0.000000 0.000000 0.000000 0.000000 10.000000 
R_front_hand03_02 0.000000 0.000000 0.000000 0.000000 0.000000 0.000000 10.000000 
null_rope01_connect 0.000000 0.000000 0.000000 0.000000 0.000000 0.000000 10.000000 
Rope1_Seg01 0.000000 0.000000 0.000000 0.000000 0.000000 0.000000 10.000000 
Rope1_Seg02 0.000000 0.000000 0.000000 0.000000 0.000000 0.000000 10.000000 
Rope1_Seg03 0.000000 0.000000 0.000000 0.000000 0.000000 0.000000 10.000000 
Rope1_Seg04 0.000000 0.000000 0.000000 0.000000 0.000000 0.000000 10.000000 
Rope1_Seg05 0.000000 0.000000 0.000000 0.000000 0.000000 0.000000 10.000000 
Rope1_Seg06 0.000000 0.000000 0.000000 0.000000 0.000000 0.000000 10.000000 
Rope1_Seg07 0.000000 0.000000 0.000000 0.000000 0.000000 0.000000 10.000000 
Rope1_Seg09 0.000000 0.000000 0.000000 0.000000 0.000000 0.000000 10.000000 
L_mid_hand01 0.000000 0.000000 0.000000 0.000000 0.000000 0.000000 10.000000 
L_mid_hand02 0.000000 0.000000 0.000000 0.000000 0.000000 0.000000 10.000000 
L_mid_hand03 0.000000 0.000000 0.000000 0.000000 0.000000 0.000000 10.000000 
null_rope02_connect 0.000000 0.000000 0.000000 0.000000 0.000000 0.000000 10.000000 
Rope2_Seg01 0.000000 0.000000 0.000000 0.000000 0.000000 0.000000 10.000000 
Rope2_Seg02 0.000000 0.000000 0.000000 0.000000 0.000000 0.000000 10.000000 
Rope2_Seg03 0.000000 0.000000 0.000000 0.000000 0.000000 0.000000 10.000000 
Rope2_Seg04 0.000000 0.000000 0.000000 0.000000 0.000000 0.000000 10.000000 
Rope2_Seg05 0.000000 0.000000 0.000000 0.000000 0.000000 0.000000 10.000000 
Rope2_Seg06 0.000000 0.000000 0.000000 0.000000 0.000000 0.000000 10.000000 
Rope2_Seg07 0.000000 0.000000 0.000000 0.000000 0.000000 0.000000 10.000000 
Rope2_Seg09 0.000000 0.000000 0.000000 0.000000 0.000000 0.000000 10.000000 
R_mid_hand01 0.000000 0.000000 0.000000 0.000000 0.000000 0.000000 10.000000 
R_mid_hand02 0.000000 0.000000 0.000000 0.000000 0.000000 0.000000 10.000000 
R_mid_hand03 0.000000 0.000000 0.000000 0.000000 0.000000 0.000000 10.000000 
spine02 0.000000 0.000000 0.000000 0.000000 0.000000 0.000000 10.000000 
spine03 0.000000 0.000000 0.000000 0.000000 0.000000 0.000000 10.000000 
pelvis 0.000000 0.000000 0.000000 0.000000 0.000000 0.000000 10.000000 
null_rope03_connect 0.000000 0.000000 0.000000 0.000000 0.000000 0.000000 10.000000 
null_rope04_connect 0.000000 0.000000 0.000000 0.000000 0.000000 0.000000 10.000000 
Rope3_Seg01 0.000000 0.000000 0.000000 0.000000 0.000000 0.000000 10.000000 
Rope3_Seg02 0.000000 0.000000 0.000000 0.000000 0.000000 0.000000 10.000000 
Rope3_Seg03 0.000000 0.000000 0.000000 0.000000 0.000000 0.000000 10.000000 
Rope3_Seg04 0.000000 0.000000 0.000000 0.000000 0.000000 0.000000 10.000000 
Rope3_Seg05 0.000000 0.000000 0.000000 0.000000 0.000000 0.000000 10.000000 
Rope3_Seg06 0.000000 0.000000 0.000000 0.000000 0.000000 0.000000 10.000000 
Rope3_Seg07 0.000000 0.000000 0.000000 0.000000 0.000000 0.000000 10.000000 
Rope3_Seg08 0.000000 0.000000 0.000000 0.000000 0.000000 0.000000 10.000000 
Rope3_Seg09 0.000000 0.000000 0.000000 0.000000 0.000000 0.000000 10.000000 
R_rear_hand01 0.000000 0.000000 0.000000 0.000000 0.000000 0.000000 10.000000 
R_rear_hand02 0.000000 0.000000 0.000000 0.000000 0.000000 0.000000 10.000000 
R_rear_hand03 0.000000 0.000000 0.000000 0.000000 0.000000 0.000000 10.000000 
Rope4_Seg01 0.000000 0.000000 0.000000 0.000000 0.000000 0.000000 10.000000 
Rope4_Seg02 0.000000 0.000000 0.000000 0.000000 0.000000 0.000000 10.000000 
Rope4_Seg03 0.000000 0.000000 0.000000 0.000000 0.000000 0.000000 10.000000 
Rope4_Seg04 0.000000 0.000000 0.000000 0.000000 0.000000 0.000000 10.000000 
Rope4_Seg05 0.000000 0.000000 0.000000 0.000000 0.000000 0.000000 10.000000 
Rope4_Seg06 0.000000 0.000000 0.000000 0.000000 0.000000 0.000000 10.000000 
Rope4_Seg07 0.000000 0.000000 0.000000 0.000000 0.000000 0.000000 10.000000 
Rope4_Seg08 0.000000 0.000000 0.000000 0.000000 0.000000 0.000000 10.000000 
Rope4_Seg09 0.000000 0.000000 0.000000 0.000000 0.000000 0.000000 10.000000 
L_rear_hand01 0.000000 0.000000 0.000000 0.000000 0.000000 0.000000 10.000000 
L_rear_hand02 0.000000 0.000000 0.000000 0.000000 0.000000 0.000000 10.000000 
L_rear_hand03 0.000000 0.000000 0.000000 0.000000 0.000000 0.000000 10.000000 
#Beginning of Data. Separated by tabs
#Fr	Tx	Ty	Tz	Rx	Ry	Rz	SF
[MASTER]
41 -0.001013 6728.832520 1526.006104 0.001660 0.001660 0.001660 6899.701660
42 -0.001028 6824.383301 1512.100342 0.001660 0.001660 0.001660 6989.896484
[root]
41 -16.502054 -22.771009 1474.159546 -91.753159 -23.577950 -89.630417 1474.427734
42 -16.502014 -0.433698 1456.394531 -91.732742 -15.332139 -89.520775 1456.488159
[chest]
41 -84.512650 -34.090519 0.000000 1.591815 0.568403 176.370026 91.129311
42 -84.512650 -34.090519 0.000000 -0.749275 0.717873 171.756500 91.129311
[L_mid_tent01]
41 27.299189 22.179543 -249.918701 -19.744003 15.865631 18.869324 252.381729
42 27.299191 22.179554 -249.918701 -20.256063 13.954625 15.901953 252.381729
[R_mid_tent01]
41 23.228794 24.509907 226.238495 -168.623474 -20.782730 31.257223 228.744751
42 23.228794 24.509907 226.238495 -166.816483 -19.374002 27.514746 228.744751
[spine01]
41 -0.361383 -0.195265 0.000000 0.001947 0.001311 22.072002 0.410763
42 -0.361383 -0.195265 0.000000 0.001947 0.001312 22.056885 0.410763
[Bip01_Neck]
41 165.484543 71.581718 0.000119 176.643677 -1.657967 43.431911 180.302734
42 165.484543 71.581718 0.000119 176.643677 -1.657967 43.431911 180.302734
[L_humerus]
41 -13.983130 -135.272980 -120.471481 3.274827 78.716179 93.701851 181.680161
42 -13.983130 -135.272980 -120.471481 -2.630435 73.842621 87.619263 181.680161
[R_humerus]
41 -13.983309 -135.273102 125.287651 39.347057 -80.588837 56.118645 184.909012
42 -13.983309 -135.273102 125.287651 31.601854 -75.212952 63.962967 184.909012
[weapon_bone]
41 235.964890 -300.705902 0.000000 0.000000 -89.951546 -128.212341 382.234833
42 235.964890 -300.705902 0.000000 0.000000 -89.951546 -128.212341 382.234833
[Bip01_Head]
41 213.443665 185.717209 11.755087 5.200446 6.151311 -43.834991 283.173553
42 213.443939 185.716339 11.766010 5.200446 6.151311 -43.834991 283.173645
[eye_left_bone]
41 -24.626970 125.451866 -64.772606 0.000000 -90.000000 -99.840431 143.318359
42 -24.626970 125.451866 -64.772606 0.000000 -90.000000 -99.840431 143.318359
[eye_right_bone]
41 -24.626970 125.451866 64.327362 0.000000 -89.965736 80.156380 143.117676
42 -24.626970 125.451866 64.327362 0.000000 -89.965736 80.156380 143.117676
[L_forearm]
41 322.776093 0.000000 -0.000119 0.000380 -0.002316 -108.648643 322.776093
42 322.776093 0.000000 -0.000119 0.000388 -0.002315 -109.034309 322.776093
[L_front_hand]
41 241.149185 -0.042021 -3.300071 149.893951 -1.837326 -27.423067 241.171753
42 241.149185 -0.042021 -3.300071 149.893951 -1.837326 -27.423067 241.171753
[L_weapon_bone]
41 156.183838 0.000000 0.000000 0.000014 0.000007 0.000001 156.183838
42 156.183838 0.000000 0.000000 0.000014 0.000007 0.000001 156.183838
[L_front_hand01_01]
41 86.095154 20.947098 -0.655860 -0.141515 -0.583183 51.382446 88.609184
42 86.095154 20.947098 -0.655860 -0.297762 -0.518820 67.608322 88.609184
[L_front_hand02_01]
41 86.935165 -11.437475 24.513514 129.449997 -44.590691 -30.362677 91.046425
42 86.935165 -11.437475 24.513514 143.744034 -55.870365 -48.810341 91.046425
[L_front_hand03_01]
41 86.637497 -14.123976 -20.424902 -130.394135 42.943909 -32.769955 90.126129
42 86.637497 -14.123976 -20.424902 -143.978989 54.089508 -50.752731 90.126129
[L_front_hand01_02]
41 71.020905 -0.000179 0.000030 0.001118 0.002096 -33.857857 71.020905
42 71.020905 -0.000179 0.000030 0.001407 0.001879 -16.339584 71.020905
[L_front_hand02_02]
41 71.020927 -0.000119 0.000060 0.001118 0.002096 -33.857857 71.020927
42 71.020927 -0.000119 0.000060 0.001407 0.001879 -16.339584 71.020927
[L_front_hand03_02]
41 71.020905 -0.000060 0.000060 0.001118 0.002096 -33.857857 71.020905
42 71.020905 -0.000060 0.000060 0.001407 0.001879 -16.339584 71.020905
[R_forearm]
41 322.776428 -0.000060 0.000030 0.205063 0.058844 -107.275085 322.776428
42 322.776428 -0.000060 0.000030 0.206310 0.061571 -107.683502 322.776428
[R_front_hand]
41 238.847015 -0.006795 2.210259 -8.879457 -10.642941 -26.315098 238.857239
42 238.847015 -0.006795 2.210259 -8.879457 -10.642941 -26.315098 238.857239
[R_weapon_bone]
41 155.664093 0.002503 -0.000030 0.003487 0.001180 -90.988930 155.664078
42 155.664093 0.002503 -0.000030 0.003487 0.001180 -90.988930 155.664078
[R_front_hand01_01]
41 87.624611 14.231146 22.918642 -131.167999 -46.570602 32.870251 91.683487
42 87.624611 14.231146 22.918642 -145.539307 -56.711716 51.071297 91.683487
[R_front_hand02_01]
41 89.356956 14.367283 -19.491137 132.263321 45.118156 35.686466 92.579636
42 89.356956 14.367283 -19.491137 146.038605 55.094013 53.517250 92.579636
[R_front_hand03_01]
41 87.286232 -22.307278 -0.143439 -0.003785 -0.455672 -54.215794 90.091743
42 87.286232 -22.307278 -0.143439 0.112109 -0.437554 -69.313744 90.091743
[R_front_hand01_02]
41 71.020905 0.000060 0.000119 0.002212 0.000785 50.924934 71.020905
42 71.020905 0.000060 0.000119 0.002048 0.001147 31.489597 71.020905
[R_front_hand02_02]
41 71.020844 -0.000030 -0.000119 0.002212 0.000785 50.924934 71.020836
42 71.020844 -0.000030 -0.000119 0.002048 0.001147 31.489597 71.020836
[R_front_hand03_02]
41 71.020905 0.000000 0.000030 0.002212 0.000785 50.924934 71.020905
42 71.020905 0.000000 0.000030 0.002048 0.001147 31.489597 71.020905
[null_rope01_connect]
41 328.732483 0.000000 -0.000238 -139.647415 -63.448730 -128.236893 328.732483
42 328.732483 0.000000 -0.000238 -149.307037 -64.155869 -123.569214 328.732483
[Rope1_Seg01]
41 0.000038 -0.000583 0.000007 73.855431 6.392614 -129.512497 0.000584
42 0.000038 -0.000597 0.000004 58.940285 2.223477 -124.571861 0.000598
[Rope1_Seg02]
41 139.999863 -0.000179 0.000000 -27.347937 8.449745 7.096627 139.999863
42 139.999863 -0.000179 0.000000 -16.541849 5.928286 3.538925 139.999863
[Rope1_Seg03]
41 139.999924 0.000060 -0.000060 -16.502871 3.470646 9.173951 139.999924
42 139.999924 0.000060 -0.000060 -15.764693 5.025887 4.519679 139.999924
[Rope1_Seg04]
41 139.999924 -0.000060 -0.000119 -9.085168 1.099303 7.670091 139.999924
42 139.999924 -0.000060 -0.000119 -13.860082 3.285288 6.804037 139.999924
[Rope1_Seg05]
41 139.999832 0.000119 -0.000060 -3.665779 0.482864 3.435724 139.999832
42 139.999832 0.000119 -0.000060 -4.085006 -1.714725 5.638048 139.999832
[Rope1_Seg06]
41 139.999954 0.000119 -0.000060 -1.937211 0.014479 2.222493 139.999954
42 139.999954 0.000119 -0.000060 -1.457290 -1.043057 2.661428 139.999954
[Rope1_Seg07]
41 139.999985 0.000060 0.000000 -1.176207 -0.052345 1.486029 139.999985
42 139.999985 0.000060 0.000000 -0.980095 -0.508526 1.653060 139.999985
[Rope1_Seg09]
41 121.602913 0.000119 -0.000089 -89.793175 -1.359789 0.847147 121.602913
42 121.602913 0.000119 -0.000089 -89.793175 -1.359789 0.847147 121.602913
[L_mid_hand01]
41 103.859421 1.038730 8.195221 130.544373 -67.584534 -38.866943 104.187431
42 103.859421 1.038730 8.195221 130.544373 -67.584534 -38.866943 104.187431
[L_mid_hand02]
41 105.572853 -4.139662 -10.864139 -168.923172 43.409309 -73.498886 106.211075
42 105.572853 -4.139662 -10.864139 -168.923172 43.409309 -73.498886 106.211075
[L_mid_hand03]
41 104.641464 17.579376 -3.913581 -6.012627 17.808174 74.893669 106.179977
42 104.641464 17.579376 -3.913581 -6.012627 17.808174 74.893669 106.179977
[null_rope02_connect]
41 328.732849 0.000179 -0.000119 -124.620834 67.633377 -24.629250 328.732849
42 328.732849 0.000179 -0.000119 -134.587433 67.894676 -29.914930 328.732849
[Rope2_Seg01]
41 0.000074 0.000007 0.000000 37.864113 8.238661 -45.271385 0.000075
42 0.000075 0.000004 0.000000 44.218777 8.653703 -46.474262 0.000075
[Rope2_Seg02]
41 139.999741 -0.000060 -0.000119 21.452238 -13.372594 -3.403911 139.999756
42 139.999741 -0.000060 -0.000119 20.433931 -12.228829 -3.049301 139.999756
[Rope2_Seg03]
41 140.000107 0.000030 0.000000 -1.800209 -6.916471 4.135003 140.000107
42 140.000107 0.000030 0.000000 -1.915516 -6.439281 3.944710 140.000107
[Rope2_Seg04]
41 139.999802 0.000000 -0.000060 12.031201 -10.982759 -5.111570 139.999802
42 139.999802 0.000000 -0.000060 9.347048 -9.430461 -3.046483 139.999802
[Rope2_Seg05]
41 139.999985 -0.000060 0.000119 9.564130 -11.290553 -5.485246 139.999985
42 139.999985 -0.000060 0.000119 10.017817 -10.170753 -5.403862 139.999985
[Rope2_Seg06]
41 139.999893 -0.000030 -0.000119 2.645908 -5.742106 -1.176202 139.999893
42 139.999893 -0.000030 -0.000119 2.989708 -5.229367 -1.348296 139.999893
[Rope2_Seg07]
41 139.999893 0.000060 -0.000060 1.331256 -3.697010 -0.565860 139.999893
42 139.999893 0.000060 -0.000060 1.377197 -3.157738 -0.540988 139.999893
[Rope2_Seg09]
41 121.338966 0.000089 -0.000060 33.793236 -1.359788 -0.847141 121.338966
42 121.338966 0.000089 -0.000060 33.793236 -1.359788 -0.847141 121.338966
[R_mid_hand01]
41 104.680779 11.144459 -10.335981 -16.212063 45.237240 70.462845 105.778534
42 104.680779 11.144459 -10.335981 -16.212063 45.237247 70.462852 105.778534
[R_mid_hand02]
41 104.070427 2.443552 8.231699 49.067371 -67.749794 39.286461 104.424065
42 104.070427 2.443552 8.231699 49.067368 -67.749771 39.286453 104.424065
[R_mid_hand03]
41 106.028137 -11.221827 -5.996406 -177.101105 15.551026 -76.585571 106.788818
42 106.028137 -11.221827 -5.996406 -177.101105 15.551026 -76.585571 106.788818
[spine02]
41 129.756927 0.001550 0.000119 0.281193 -4.052178 -11.797311 129.756927
42 129.756927 0.001550 0.000119 0.320646 -4.048680 -12.356194 129.756927
[spine03]
41 78.613899 0.081496 -4.899023 1.847348 3.856389 15.769666 78.766441
42 78.613899 0.081489 -4.899024 1.871091 3.843877 16.132456 78.766441
[pelvis]
41 169.435242 0.051022 0.000000 -0.053330 -0.181501 12.678696 169.435257
42 169.435242 0.051022 0.000000 -0.059383 -0.180585 13.400500 169.435257
[null_rope03_connect]
41 -1.257226 -2.466202 137.391083 -173.607574 -89.409172 -111.518967 137.418976
42 -1.257226 -2.466202 137.391083 165.490601 -89.391869 -99.358932 137.418976
[null_rope04_connect]
41 -1.259640 -2.480268 -137.844437 -173.607574 -89.409172 -111.518967 137.872513
42 -1.259640 -2.480268 -137.844437 165.490601 -89.391869 -99.358932 137.872513
[Rope3_Seg01]
41 0.000004 -0.000583 0.000000 -131.880341 9.758036 -85.005081 0.000583
42 0.000002 -0.000597 0.000000 -133.232834 18.333931 -84.201797 0.000597
[Rope3_Seg02]
41 139.999924 -0.000119 0.000060 0.107074 -3.587935 -4.154031 139.999924
42 139.999924 -0.000119 0.000060 0.088226 -2.083970 -2.854360 139.999924
[Rope3_Seg03]
41 139.999924 -0.000119 0.000119 0.342389 -4.661119 -6.901520 139.999924
42 139.999924 -0.000119 0.000119 0.168611 -2.555974 -4.153452 139.999924
[Rope3_Seg04]
41 139.999924 0.000119 0.000000 0.431114 -5.572708 -7.893501 139.999924
42 139.999924 0.000119 0.000000 0.143295 -3.170651 -5.649760 139.999924
[Rope3_Seg05]
41 139.999924 -0.000238 0.000060 1.088972 0.715727 11.666395 139.999924
42 139.999924 -0.000238 0.000060 0.247253 1.309931 6.739861 139.999924
[Rope3_Seg06]
41 139.999893 -0.000119 -0.000060 0.488336 0.931506 7.424701 139.999893
42 139.999893 -0.000119 -0.000060 0.285831 1.921403 7.183421 139.999893
[Rope3_Seg07]
41 139.999771 0.000060 -0.000119 0.367970 0.168655 3.469675 139.999771
42 139.999771 0.000060 -0.000119 0.288675 0.706023 3.218626 139.999771
[Rope3_Seg08]
41 139.999985 -0.000060 0.000000 0.404500 0.117868 2.114013 139.999985
42 139.999985 -0.000060 0.000000 0.356004 0.455368 2.035884 139.999985
[Rope3_Seg09]
41 90.185997 -0.000179 -0.000060 89.793228 -1.359877 -0.847183 90.185997
42 90.185997 -0.000179 -0.000060 89.793228 -1.359877 -0.847183 90.185997
[R_rear_hand01]
41 103.366196 -6.073594 -10.757982 -177.714203 24.565960 -73.910950 104.101845
42 103.366196 -6.073594 -10.757982 -177.714203 24.565960 -73.910950 104.101845
[R_rear_hand02]
41 100.509819 12.039542 -7.992327 -12.874829 36.868488 72.167213 101.543350
42 100.509819 12.039542 -7.992327 -12.874829 36.868488 72.167213 101.543350
[R_rear_hand03]
41 101.539970 5.215704 5.435467 71.484581 -71.816628 21.513813 101.819031
42 101.539970 5.215704 5.435467 71.484581 -71.816628 21.513813 101.819031
[Rope4_Seg01]
41 -0.000010 -0.000579 -0.000007 45.364292 9.413883 -121.464684 0.000580
42 -0.000010 -0.000595 -0.000004 43.607548 22.226828 -119.112587 0.000595
[Rope4_Seg02]
41 139.999985 0.000060 0.000119 0.687882 2.636460 3.792817 139.999985
42 139.999985 0.000060 0.000119 0.498682 2.788568 4.551574 139.999985
[Rope4_Seg03]
41 139.999924 0.000000 -0.000238 0.931768 4.435982 6.852365 139.999924
42 139.999924 0.000000 -0.000238 0.391875 4.304461 6.944555 139.999924
[Rope4_Seg04]
41 139.999985 0.000000 0.000119 0.735245 10.876555 23.363487 139.999985
42 139.999985 0.000000 0.000119 -1.452383 11.760259 24.378021 139.999985
[Rope4_Seg05]
41 139.999802 -0.000060 -0.000119 4.113344 2.776701 -27.015869 139.999802
42 139.999802 -0.000060 -0.000119 3.151990 1.467051 -7.999835 139.999802
[Rope4_Seg06]
41 139.999924 0.000000 0.000060 0.646411 -1.288125 -15.509531 139.999924
42 139.999924 0.000000 0.000060 5.447190 -6.681688 -22.986116 139.999924
[Rope4_Seg07]
41 139.999802 0.000000 0.000000 -0.189521 -0.037833 -5.876343 139.999802
42 139.999802 0.000000 0.000000 0.438542 -1.916061 -6.270966 139.999802
[Rope4_Seg08]
41 139.999924 0.000000 0.000119 -1.719844 -0.011010 -3.149336 139.999924
42 139.999924 0.000000 0.000119 -1.467145 -1.045613 -3.339019 139.999924
[Rope4_Seg09]
41 90.185791 0.000060 0.000060 -135.617828 2.228885 0.850567 90.185791
42 90.185791 0.000060 0.000060 -135.617828 2.228885 0.850567 90.185791
[L_rear_hand01]
41 101.696655 -8.392275 -7.654577 -12.874829 -36.868488 107.832764 102.329041
42 101.696655 -8.392275 -7.654577 -12.874829 -36.868488 107.832764 102.329041
[L_rear_hand02]
41 102.726799 -1.568258 5.773216 71.484581 71.816628 158.486160 102.900848
42 102.726799 -1.568258 5.773216 71.484581 71.816628 158.486160 102.900848
[L_rear_hand03]
41 104.552910 9.721220 -10.420293 -177.714203 -24.565960 -106.089035 105.519653
42 104.552910 9.721220 -10.420293 -177.714203 -24.565960 -106.089035 105.519653
